# xmcd
#
# Track frame offsets:
#	150
#	14140
#	34122
#	51202
#	65402
#	79547
#	94520
#	108787
#	127167
#	142245
#	158420
#	171020
#	184302
#	199082
#
# Disc length: 2888
#
# Revision: 1
# Processed by: cddbd v1.5.1PL0 Copyright (c) Steve Scherf et al.
# Submitted via: VisiTrax 2.9.3.171 - For more info visit www.synapsa.com
# Normalized: r0:DSETVAR1
#
DISCID=bd0b460e
DTITLE=Various Artist - Mr Music Country 11-01
DYEAR=1900
DGENRE=
TTITLE0=The West Coast Pinups - Lush Life
TTITLE1=Alan Jackson - Another Good Reason
TTITLE2=Dawn Sears - The Singer, The Sailor And The Blue Collar Paul
TTITLE3=The Mad Cat Trio - 2200 Miles
TTITLE4=Annie B - Miles Of Texas
TTITLE5=Dale Watson - Every Song I Write Is For You
TTITLE6=Alex Whitmore - Never Gonna Get Texas Out Of You
TTITLE7=Mary Cutrufello - The Long Red Line
TTITLE8=Joe Paul Nichols - Everytime I Close My Eyes I See Texas
TTITLE9=K. T. Olsin - Maybe We Should Learn To Tango
TTITLE10=Dugg Collins - Hang Your Head In Shame
TTITLE11=Sara Evans - There's Only One
TTITLE12=Carl Vaughan - When The Music Stops
TTITLE13=Lorrie Morgan - Between Midnight And Tomorrow
EXTD=
EXTT0=
EXTT1=
EXTT2=
EXTT3=
EXTT4=
EXTT5=
EXTT6=
EXTT7=
EXTT8=
EXTT9=
EXTT10=
EXTT11=
EXTT12=
EXTT13=
PLAYORDER=
